<svg xmlns="http://www.w3.org/2000/svg" xmlns:xlink="http://www.w3.org/1999/xlink" width="23.968" height="26.574" viewBox="0 0 23.968 26.574"><defs><linearGradient id="a" x1="0.216" y1="0.378" x2="1.128" y2="0.378" gradientUnits="objectBoundingBox"><stop offset="0" stop-color="#f60"/><stop offset="1" stop-color="#ffb53f"/></linearGradient><linearGradient id="b" y1="0.5" x2="0.999" y2="0.5" gradientUnits="objectBoundingBox"><stop offset="0" stop-color="blue"/><stop offset="1" stop-color="#00a6ff"/></linearGradient></defs><g transform="translate(142.469 1283.272)"><path d="M21.791,2.017,1.291,7.51a1.74,1.74,0,0,0-.78,2.91l15.007,15a1.74,1.74,0,0,0,2.91-.777l5.484-20.5a1.74,1.74,0,0,0-2.12-2.13Z" transform="translate(-142.471 -1282.631)" fill="url(#a)"/><path d="M34.684.208,16.094,10.942a1.667,1.667,0,0,0,0,2.888l18.59,10.737A1.667,1.667,0,0,0,37.2,23.124V1.649A1.664,1.664,0,0,0,34.684.208Z" transform="translate(-156.348 -1283.245)" fill="url(#b)"/></g></svg>