<svg xmlns="http://www.w3.org/2000/svg" xmlns:xlink="http://www.w3.org/1999/xlink" width="80" height="24.827" viewBox="0 0 80 24.827"><defs><linearGradient id="a" x1="0.216" y1="0.378" x2="1.128" y2="0.378" gradientUnits="objectBoundingBox"><stop offset="0" stop-color="#f60"/><stop offset="1" stop-color="#ffb53f"/></linearGradient><linearGradient id="b" y1="0.5" x2="0.999" y2="0.5" gradientUnits="objectBoundingBox"><stop offset="0" stop-color="blue"/><stop offset="1" stop-color="#00a6ff"/></linearGradient></defs><g transform="translate(-0.002 0.027)"><g transform="translate(0.002 -0.027)"><path d="M21.791,2.017,1.291,7.51a1.74,1.74,0,0,0-.78,2.91l15.007,15a1.74,1.74,0,0,0,2.91-.777l5.484-20.5a1.74,1.74,0,0,0-2.12-2.13Z" transform="translate(-0.002 -1.336)" fill="url(#a)"/><path d="M34.684.208,16.094,10.942a1.667,1.667,0,0,0,0,2.888l18.59,10.737A1.667,1.667,0,0,0,37.2,23.124V1.649A1.664,1.664,0,0,0,34.684.208Z" transform="translate(-10.46 0.027)" fill="url(#b)"/><path d="M96.18,19.238V7.11h5.172q3.461,0,3.461,2.831a3.063,3.063,0,0,1-2.256,2.96,2.591,2.591,0,0,1,2.41,2.756q0,3.593-3.775,3.59Zm4.9-1.258a1.933,1.933,0,0,0,2.171-2.2q0-2.142-2.91-2.146h-.676V12.587q3.476-.466,3.461-2.517,0-1.693-1.935-1.7H97.731v9.589Z" transform="translate(-65.922 -4.865)" fill="#0080ff"/><path d="M130.68,13.006q0-6.169,6.091-6.166,6,0,6,6.166t-6.009,6.132Q130.683,19.138,130.68,13.006Zm6.078,4.857q4.342,0,4.342-4.911,0-4.842-4.342-4.842-4.436,0-4.436,4.842Q132.335,17.867,136.758,17.864Z" transform="translate(-89.568 -4.68)" fill="#0080ff"/><path d="M175.57,13.006q0-6.169,6.088-6.166,6,0,6,6.166t-6,6.132Q175.57,19.138,175.57,13.006Zm6.088,4.857q4.348,0,4.345-4.911,0-4.842-4.345-4.842-4.43,0-4.433,4.842Q177.225,17.867,181.658,17.864Z" transform="translate(-120.336 -4.68)" fill="#0080ff"/><path d="M223.363,7.11V19.238H221.79V7.11Zm8.532,0-5.462,5.723,5.581,6.405h-2.18L224.889,13.4v-.944l5.034-5.348Z" transform="translate(-152.015 -4.865)" fill="#0080ff"/><path d="M96.6,61.125a2.567,2.567,0,0,0,1.293.365c.736,0,1.167-.39,1.167-.944s-.315-.821-1.051-1.111c-.912-.315-1.475-.793-1.475-1.573a1.607,1.607,0,0,1,1.806-1.516,2.517,2.517,0,0,1,1.233.274l-.2.588a2.2,2.2,0,0,0-1.06-.264c-.761,0-1.051.453-1.051.834,0,.522.34.78,1.107,1.076.944.365,1.425.821,1.425,1.639s-.629,1.6-1.954,1.6a2.863,2.863,0,0,1-1.425-.355Z" transform="translate(-66.086 -38.61)" fill="#ff812f"/><path d="M110.97,56.6v2.328h2.7V56.6h.727v5.578h-.727V59.557h-2.7v2.614h-.72V56.6Z" transform="translate(-75.566 -38.785)" fill="#ff812f"/><path d="M127.394,60.426l-.579,1.752h-.746l1.888-5.578h.871l1.888,5.578h-.771l-.595-1.752Zm1.828-.554-.544-1.608c-.126-.362-.208-.7-.289-1.016h-.019c-.082.315-.173.67-.28,1.01l-.547,1.614Z" transform="translate(-86.408 -38.785)" fill="#ff812f"/><path d="M143.52,56.586a7.4,7.4,0,0,1,1.381-.116,2.292,2.292,0,0,1,1.614.456,1.394,1.394,0,0,1,.437,1.057,1.463,1.463,0,0,1-1.051,1.425v.025a1.386,1.386,0,0,1,.821,1.126,8.79,8.79,0,0,0,.431,1.529h-.746a7.125,7.125,0,0,1-.374-1.331c-.16-.771-.475-1.06-1.1-1.085h-.676v2.416h-.72Zm.72,2.539h.736c.768,0,1.258-.422,1.258-1.057,0-.72-.522-1.035-1.284-1.044a3.02,3.02,0,0,0-.711.066Z" transform="translate(-98.369 -38.695)" fill="#ff812f"/><path d="M158.43,56.6v5.578h-.72V56.6Z" transform="translate(-108.094 -38.785)" fill="#ff812f"/><path d="M164,62.178V56.6h.786l1.787,2.831a16.133,16.133,0,0,1,1,1.812h0c-.066-.746-.082-1.425-.082-2.293V56.6h.68v5.578h-.711l-1.771-2.831a18.038,18.038,0,0,1-1.06-1.859H164.6c.041.7.057,1.375.057,2.3v2.382Z" transform="translate(-112.406 -38.785)" fill="#ff812f"/><path d="M184.787,61.784a5.178,5.178,0,0,1-1.715.315,2.624,2.624,0,0,1-2.863-2.831,2.794,2.794,0,0,1,3.02-2.879,3.5,3.5,0,0,1,1.391.255l-.173.588a2.9,2.9,0,0,0-1.233-.239,2.087,2.087,0,0,0-2.243,2.243,2.051,2.051,0,0,0,2.152,2.249,2.372,2.372,0,0,0,.944-.148V59.682h-1.133V59.1h1.837Z" transform="translate(-123.509 -38.639)" fill="#ff812f"/></g></g></svg>